# xmcd CD database file
#
# Track frame offsets:
#	150
#	14335
#	27395
#	46257
#	62517
#	78752
#	95530
#	101692
#	124195
#	134455
#	148750
#	165942
#
# Disc length: 2480 seconds
#
# Revision: 2
# Processed by: cddbd v1.5.2PL0 Copyright (c) Steve Scherf et al.
# Submitted via: CDex 1.70beta2
#
DISCID=9709ae0c
DTITLE=髭(HiGE) - I Love Rock n' Roll
DYEAR=2005
DGENRE=Rock and Roll
TTITLE0=僕らのさいご
TTITLE1=ブラッディ・マリー、気をつけろ!
TTITLE2="C'mon, do it"
TTITLE3=イギー・ポップによろしく
TTITLE4=ママ's 理論
TTITLE5=魅惑の深海パーティー
TTITLE6=vs ハワイアン
TTITLE7=君のあふれる音
TTITLE8=ブラームスの子守歌
TTITLE9=王様はロバのいうとおり
TTITLE10=1mg
TTITLE11=連中は遠慮しな
EXTD=YEAR: 2005
EXTT0=
EXTT1=
EXTT2=
EXTT3=
EXTT4=
EXTT5=
EXTT6=
EXTT7=
EXTT8=
EXTT9=
EXTT10=
EXTT11=
PLAYORDER=
